<mxfile host="app.diagrams.net" modified="2022-02-22T01:04:17.094Z" agent="5.0 (Windows NT 6.1; Win64; x64) AppleWebKit/537.36 (KHTML, like Gecko) Chrome/98.0.4758.102 Safari/537.36" etag="W7xgf2F23LCWG4OpJDV4" version="16.6.2" type="github">
  <diagram id="fAc54TjRKRkGmsrrGZyp" name="Page-1">
    <mxGraphModel dx="868" dy="482" grid="1" gridSize="10" guides="1" tooltips="1" connect="1" arrows="1" fold="1" page="1" pageScale="1" pageWidth="827" pageHeight="1169" math="0" shadow="0">
      <root>
        <mxCell id="0" />
        <mxCell id="1" parent="0" />
        <mxCell id="DtJeoT5fcReljQFczoQG-5" value="" style="edgeStyle=orthogonalEdgeStyle;rounded=0;orthogonalLoop=1;jettySize=auto;html=1;fontFamily=Garamond;fontSize=20;" edge="1" parent="1" source="DtJeoT5fcReljQFczoQG-1" target="DtJeoT5fcReljQFczoQG-4">
          <mxGeometry relative="1" as="geometry" />
        </mxCell>
        <mxCell id="DtJeoT5fcReljQFczoQG-7" value="" style="edgeStyle=orthogonalEdgeStyle;rounded=0;orthogonalLoop=1;jettySize=auto;html=1;fontFamily=Garamond;fontSize=20;" edge="1" parent="1" source="DtJeoT5fcReljQFczoQG-1" target="DtJeoT5fcReljQFczoQG-6">
          <mxGeometry relative="1" as="geometry" />
        </mxCell>
        <mxCell id="DtJeoT5fcReljQFczoQG-13" value="" style="edgeStyle=orthogonalEdgeStyle;rounded=0;orthogonalLoop=1;jettySize=auto;html=1;fontFamily=Garamond;fontSize=20;exitX=0;exitY=1;exitDx=0;exitDy=0;" edge="1" parent="1" source="DtJeoT5fcReljQFczoQG-1" target="DtJeoT5fcReljQFczoQG-12">
          <mxGeometry relative="1" as="geometry">
            <Array as="points">
              <mxPoint x="370" y="210" />
              <mxPoint x="290" y="210" />
            </Array>
          </mxGeometry>
        </mxCell>
        <mxCell id="DtJeoT5fcReljQFczoQG-15" value="" style="edgeStyle=orthogonalEdgeStyle;rounded=0;orthogonalLoop=1;jettySize=auto;html=1;fontFamily=Garamond;fontSize=20;exitX=1;exitY=1;exitDx=0;exitDy=0;" edge="1" parent="1" source="DtJeoT5fcReljQFczoQG-1" target="DtJeoT5fcReljQFczoQG-14">
          <mxGeometry relative="1" as="geometry">
            <Array as="points">
              <mxPoint x="420" y="210" />
              <mxPoint x="510" y="210" />
            </Array>
          </mxGeometry>
        </mxCell>
        <mxCell id="DtJeoT5fcReljQFczoQG-18" value="" style="edgeStyle=orthogonalEdgeStyle;rounded=0;orthogonalLoop=1;jettySize=auto;html=1;fontFamily=Garamond;fontSize=20;" edge="1" parent="1" source="DtJeoT5fcReljQFczoQG-1" target="DtJeoT5fcReljQFczoQG-17">
          <mxGeometry relative="1" as="geometry" />
        </mxCell>
        <mxCell id="DtJeoT5fcReljQFczoQG-1" value="&lt;h4&gt;&lt;b&gt;&lt;font face=&quot;Garamond&quot; style=&quot;font-size: 20px&quot;&gt;início&amp;nbsp;&lt;/font&gt;&lt;/b&gt;&lt;/h4&gt;" style="ellipse;whiteSpace=wrap;html=1;aspect=fixed;fillColor=#e1d5e7;strokeColor=#9673a6;" vertex="1" parent="1">
          <mxGeometry x="360" y="40" width="70" height="70" as="geometry" />
        </mxCell>
        <mxCell id="DtJeoT5fcReljQFczoQG-9" value="" style="edgeStyle=orthogonalEdgeStyle;rounded=0;orthogonalLoop=1;jettySize=auto;html=1;fontFamily=Garamond;fontSize=20;" edge="1" parent="1" source="DtJeoT5fcReljQFczoQG-4" target="DtJeoT5fcReljQFczoQG-8">
          <mxGeometry relative="1" as="geometry" />
        </mxCell>
        <mxCell id="DtJeoT5fcReljQFczoQG-4" value="&lt;b&gt;data do evento posterior à data atual&lt;/b&gt;" style="whiteSpace=wrap;html=1;fillColor=#dae8fc;strokeColor=#6c8ebf;" vertex="1" parent="1">
          <mxGeometry x="185" y="45" width="120" height="60" as="geometry" />
        </mxCell>
        <mxCell id="DtJeoT5fcReljQFczoQG-11" value="" style="edgeStyle=orthogonalEdgeStyle;rounded=0;orthogonalLoop=1;jettySize=auto;html=1;fontFamily=Garamond;fontSize=20;" edge="1" parent="1" source="DtJeoT5fcReljQFczoQG-6" target="DtJeoT5fcReljQFczoQG-10">
          <mxGeometry relative="1" as="geometry" />
        </mxCell>
        <mxCell id="DtJeoT5fcReljQFczoQG-6" value="&lt;b&gt;data do evento anterior à data atual&lt;/b&gt;" style="whiteSpace=wrap;html=1;fillColor=#dae8fc;strokeColor=#6c8ebf;" vertex="1" parent="1">
          <mxGeometry x="485" y="45" width="120" height="60" as="geometry" />
        </mxCell>
        <mxCell id="DtJeoT5fcReljQFczoQG-8" value="&lt;b&gt;permitir&lt;/b&gt;" style="ellipse;whiteSpace=wrap;html=1;" vertex="1" parent="1">
          <mxGeometry x="185" y="130" width="120" height="60" as="geometry" />
        </mxCell>
        <mxCell id="DtJeoT5fcReljQFczoQG-10" value="&lt;b&gt;cadastro não permitido por data invalida&lt;/b&gt;" style="ellipse;whiteSpace=wrap;html=1;" vertex="1" parent="1">
          <mxGeometry x="485" y="130" width="120" height="60" as="geometry" />
        </mxCell>
        <mxCell id="DtJeoT5fcReljQFczoQG-20" value="" style="edgeStyle=orthogonalEdgeStyle;rounded=0;orthogonalLoop=1;jettySize=auto;html=1;fontFamily=Garamond;fontSize=20;" edge="1" parent="1" source="DtJeoT5fcReljQFczoQG-12" target="DtJeoT5fcReljQFczoQG-19">
          <mxGeometry relative="1" as="geometry" />
        </mxCell>
        <mxCell id="DtJeoT5fcReljQFczoQG-12" value="&lt;b&gt;maior de 18 anos&lt;/b&gt;" style="whiteSpace=wrap;html=1;fillColor=#dae8fc;strokeColor=#6c8ebf;" vertex="1" parent="1">
          <mxGeometry x="230" y="290" width="120" height="30" as="geometry" />
        </mxCell>
        <mxCell id="DtJeoT5fcReljQFczoQG-22" value="" style="edgeStyle=orthogonalEdgeStyle;rounded=0;orthogonalLoop=1;jettySize=auto;html=1;fontFamily=Garamond;fontSize=20;" edge="1" parent="1" source="DtJeoT5fcReljQFczoQG-14" target="DtJeoT5fcReljQFczoQG-21">
          <mxGeometry relative="1" as="geometry" />
        </mxCell>
        <mxCell id="DtJeoT5fcReljQFczoQG-14" value="&lt;b&gt;menor de 18 anos&lt;/b&gt;" style="whiteSpace=wrap;html=1;fillColor=#dae8fc;strokeColor=#6c8ebf;" vertex="1" parent="1">
          <mxGeometry x="450" y="290" width="120" height="30" as="geometry" />
        </mxCell>
        <mxCell id="DtJeoT5fcReljQFczoQG-24" value="" style="edgeStyle=orthogonalEdgeStyle;rounded=0;orthogonalLoop=1;jettySize=auto;html=1;fontFamily=Garamond;fontSize=20;" edge="1" parent="1" source="DtJeoT5fcReljQFczoQG-17" target="DtJeoT5fcReljQFczoQG-23">
          <mxGeometry relative="1" as="geometry">
            <Array as="points">
              <mxPoint x="360" y="560" />
              <mxPoint x="275" y="560" />
            </Array>
          </mxGeometry>
        </mxCell>
        <mxCell id="DtJeoT5fcReljQFczoQG-26" value="" style="edgeStyle=orthogonalEdgeStyle;rounded=0;orthogonalLoop=1;jettySize=auto;html=1;fontFamily=Garamond;fontSize=20;" edge="1" parent="1" source="DtJeoT5fcReljQFczoQG-17" target="DtJeoT5fcReljQFczoQG-25">
          <mxGeometry relative="1" as="geometry">
            <Array as="points">
              <mxPoint x="420" y="560" />
              <mxPoint x="500" y="560" />
            </Array>
          </mxGeometry>
        </mxCell>
        <mxCell id="DtJeoT5fcReljQFczoQG-17" value="&lt;b&gt;listar participantes e palestrantes por evento&amp;nbsp;&lt;/b&gt;" style="whiteSpace=wrap;html=1;fillColor=#dae8fc;strokeColor=#6c8ebf;" vertex="1" parent="1">
          <mxGeometry x="335" y="450" width="120" height="60" as="geometry" />
        </mxCell>
        <mxCell id="DtJeoT5fcReljQFczoQG-19" value="&lt;b&gt;permitir cadastro&lt;/b&gt;" style="ellipse;whiteSpace=wrap;html=1;" vertex="1" parent="1">
          <mxGeometry x="230" y="350" width="120" height="40" as="geometry" />
        </mxCell>
        <mxCell id="DtJeoT5fcReljQFczoQG-21" value="&lt;b&gt;cadastro não permitido pela idade&lt;/b&gt;" style="ellipse;whiteSpace=wrap;html=1;" vertex="1" parent="1">
          <mxGeometry x="450" y="340" width="120" height="60" as="geometry" />
        </mxCell>
        <mxCell id="DtJeoT5fcReljQFczoQG-28" value="" style="edgeStyle=orthogonalEdgeStyle;rounded=0;orthogonalLoop=1;jettySize=auto;html=1;fontFamily=Garamond;fontSize=20;" edge="1" parent="1" source="DtJeoT5fcReljQFczoQG-23" target="DtJeoT5fcReljQFczoQG-27">
          <mxGeometry relative="1" as="geometry" />
        </mxCell>
        <mxCell id="DtJeoT5fcReljQFczoQG-23" value="&lt;b&gt;quantidade de participantes inferior a 100&lt;/b&gt;" style="rounded=1;whiteSpace=wrap;html=1;fillColor=#d5e8d4;strokeColor=#82b366;" vertex="1" parent="1">
          <mxGeometry x="215" y="610" width="120" height="60" as="geometry" />
        </mxCell>
        <mxCell id="DtJeoT5fcReljQFczoQG-34" value="" style="edgeStyle=orthogonalEdgeStyle;rounded=0;orthogonalLoop=1;jettySize=auto;html=1;fontFamily=Garamond;fontSize=20;" edge="1" parent="1" source="DtJeoT5fcReljQFczoQG-25" target="DtJeoT5fcReljQFczoQG-33">
          <mxGeometry relative="1" as="geometry" />
        </mxCell>
        <mxCell id="DtJeoT5fcReljQFczoQG-25" value="&lt;b&gt;quantidade superior a 100 participantes&lt;/b&gt;" style="rounded=1;whiteSpace=wrap;html=1;fillColor=#d5e8d4;strokeColor=#82b366;" vertex="1" parent="1">
          <mxGeometry x="440" y="610" width="120" height="60" as="geometry" />
        </mxCell>
        <mxCell id="DtJeoT5fcReljQFczoQG-27" value="&lt;b&gt;permitir&lt;/b&gt;" style="ellipse;whiteSpace=wrap;html=1;rounded=1;" vertex="1" parent="1">
          <mxGeometry x="215" y="710" width="120" height="30" as="geometry" />
        </mxCell>
        <mxCell id="DtJeoT5fcReljQFczoQG-33" value="&lt;b&gt;cadastro não permitido por exceder limite&lt;/b&gt;" style="ellipse;whiteSpace=wrap;html=1;rounded=1;" vertex="1" parent="1">
          <mxGeometry x="440" y="695" width="120" height="60" as="geometry" />
        </mxCell>
      </root>
    </mxGraphModel>
  </diagram>
</mxfile>
